<svg
  xmlns="http://www.w3.org/2000/svg"
  width="660"
  viewBox="0 0 660 1500"
  height="1500"
  version="1.0"
><defs><clipPath id="a"><path
        d="M 419 1145 L 470 1145 L 470 1194.839844 L 419 1194.839844 Z M 419 1145"
      /></clipPath><clipPath id="b"><path
        d="M 190 496.613281 L 203 496.613281 L 203 547 L 190 547 Z M 190 496.613281"
      /></clipPath></defs><path
    fill="#292C35"
    d="M 612.3125 782.761719 L 330 1087.988281 L 47.6875 782.761719 L 162.140625 641.59375 L 497.859375 641.59375 Z M 612.3125 782.761719"
  /><path
    fill="#E91E63"
    d="M 330 1095.621094 C 327.902344 1095.621094 325.804688 1094.667969 324.46875 1093.140625 L 42.15625 787.914062 C 39.484375 785.050781 39.484375 780.855469 41.773438 777.992188 L 156.226562 636.824219 C 157.75 635.109375 159.851562 633.964844 162.140625 633.964844 L 497.859375 633.964844 C 500.148438 633.964844 502.25 634.917969 503.773438 636.824219 L 618.226562 777.992188 C 620.707031 780.855469 620.515625 785.242188 617.84375 787.914062 L 335.53125 1093.140625 C 334.195312 1094.667969 332.097656 1095.621094 330 1095.621094 Z M 57.796875 782.378906 L 330 1076.734375 L 602.203125 782.378906 L 494.238281 649.222656 L 165.761719 649.222656 Z M 57.796875 782.378906"
  /><path
    fill="#E91E63"
    d="M 612.3125 790.390625 L 47.6875 790.390625 C 43.492188 790.390625 40.058594 786.957031 40.058594 782.761719 C 40.058594 778.566406 43.492188 775.132812 47.6875 775.132812 L 612.3125 775.132812 C 616.507812 775.132812 619.941406 778.566406 619.941406 782.761719 C 619.941406 786.957031 616.507812 790.390625 612.3125 790.390625 Z M 612.3125 790.390625"
  /><path
    fill="#E91E63"
    d="M 330 1095.621094 C 329.046875 1095.621094 328.285156 1095.429688 327.328125 1095.046875 C 323.324219 1093.523438 321.417969 1089.132812 322.941406 1085.320312 L 435.867188 784.097656 L 324.085938 646.363281 C 321.417969 643.121094 321.988281 638.351562 325.230469 635.679688 C 328.472656 633.007812 333.242188 633.582031 335.914062 636.824219 L 450.363281 777.992188 C 452.082031 780.089844 452.460938 782.953125 451.507812 785.433594 L 337.058594 1090.660156 C 335.914062 1093.710938 333.050781 1095.621094 330 1095.621094 Z M 330 1095.621094"
  /><path
    fill="#E91E63"
    d="M 330 1095.621094 C 326.949219 1095.621094 324.085938 1093.710938 322.941406 1090.660156 L 208.492188 785.433594 C 207.539062 782.953125 207.917969 780.089844 209.636719 777.992188 L 324.085938 636.824219 C 326.757812 633.582031 331.527344 633.007812 334.769531 635.679688 C 338.011719 638.351562 338.582031 643.121094 335.914062 646.363281 L 224.132812 784.097656 L 337.058594 1085.320312 C 338.582031 1089.324219 336.484375 1093.710938 332.671875 1095.046875 C 331.714844 1095.429688 330.953125 1095.621094 330 1095.621094 Z M 330 1095.621094"
  /><path
    fill="#E91E63"
    d="M 24.796875 1080.359375 C 11.0625 1080.359375 0 1069.292969 0 1055.558594 C 0 1041.824219 11.0625 1030.757812 24.796875 1030.757812 C 38.53125 1030.757812 49.59375 1041.824219 49.59375 1055.558594 C 49.59375 1069.292969 38.53125 1080.359375 24.796875 1080.359375 Z M 24.796875 1042.207031 C 17.359375 1042.207031 11.445312 1048.117188 11.445312 1055.558594 C 11.445312 1063 17.359375 1068.914062 24.796875 1068.914062 C 32.238281 1068.914062 38.148438 1063 38.148438 1055.558594 C 38.148438 1048.117188 32.238281 1042.207031 24.796875 1042.207031 Z M 24.796875 1042.207031"
  /><path
    fill="#E91E63"
    d="M 635.203125 660.671875 C 621.46875 660.671875 610.40625 649.605469 610.40625 635.871094 C 610.40625 622.136719 621.46875 611.070312 635.203125 611.070312 C 648.9375 611.070312 660 622.136719 660 635.871094 C 660 649.605469 648.9375 660.671875 635.203125 660.671875 Z M 635.203125 622.515625 C 627.761719 622.515625 621.851562 628.429688 621.851562 635.871094 C 621.851562 643.3125 627.761719 649.222656 635.203125 649.222656 C 642.640625 649.222656 648.554688 643.3125 648.554688 635.871094 C 648.554688 628.429688 642.640625 622.515625 635.203125 622.515625 Z M 635.203125 622.515625"
  /><path
    fill="#E91E63"
    d="M 24.796875 679.746094 C 11.0625 679.746094 0 668.683594 0 654.949219 C 0 641.210938 11.0625 630.148438 24.796875 630.148438 C 38.53125 630.148438 49.59375 641.210938 49.59375 654.949219 C 49.59375 668.683594 38.53125 679.746094 24.796875 679.746094 Z M 24.796875 641.59375 C 17.359375 641.59375 11.445312 647.507812 11.445312 654.949219 C 11.445312 662.386719 17.359375 668.300781 24.796875 668.300781 C 32.238281 668.300781 38.148438 662.386719 38.148438 654.949219 C 38.148438 647.507812 32.238281 641.59375 24.796875 641.59375 Z M 24.796875 641.59375"
  /><g clip-path="url(#a)"><path
      fill="#E91E63"
      d="M 444.449219 1194.820312 C 430.714844 1194.820312 419.652344 1183.753906 419.652344 1170.019531 C 419.652344 1156.285156 430.714844 1145.21875 444.449219 1145.21875 C 458.183594 1145.21875 469.25 1156.285156 469.25 1170.019531 C 469.25 1183.753906 458.183594 1194.820312 444.449219 1194.820312 Z M 444.449219 1156.664062 C 437.011719 1156.664062 431.097656 1162.578125 431.097656 1170.019531 C 431.097656 1177.460938 437.011719 1183.375 444.449219 1183.375 C 451.890625 1183.375 457.804688 1177.460938 457.804688 1170.019531 C 457.804688 1162.578125 451.890625 1156.664062 444.449219 1156.664062 Z M 444.449219 1156.664062"
    /></g><g clip-path="url(#b)"><path
      fill="#E91E63"
      d="M 196.472656 546.210938 C 193.230469 546.210938 190.75 543.730469 190.75 540.488281 L 190.75 502.332031 C 190.75 499.089844 193.230469 496.609375 196.472656 496.609375 C 199.714844 496.609375 202.195312 499.089844 202.195312 502.332031 L 202.195312 540.488281 C 202.195312 543.730469 199.714844 546.210938 196.472656 546.210938 Z M 196.472656 546.210938"
    /></g><path
    fill="#E91E63"
    d="M 215.550781 527.132812 L 177.398438 527.132812 C 174.15625 527.132812 171.675781 524.652344 171.675781 521.410156 C 171.675781 518.167969 174.15625 515.6875 177.398438 515.6875 L 215.550781 515.6875 C 218.792969 515.6875 221.273438 518.167969 221.273438 521.410156 C 221.273438 524.652344 218.792969 527.132812 215.550781 527.132812 Z M 215.550781 527.132812"
  /><path
    fill="#E91E63"
    d="M 558.902344 603.441406 C 555.660156 603.441406 553.179688 600.960938 553.179688 597.71875 L 553.179688 559.5625 C 553.179688 556.320312 555.660156 553.839844 558.902344 553.839844 C 562.144531 553.839844 564.625 556.320312 564.625 559.5625 L 564.625 597.71875 C 564.625 600.960938 562.144531 603.441406 558.902344 603.441406 Z M 558.902344 603.441406"
  /><path
    fill="#E91E63"
    d="M 577.976562 584.363281 L 539.828125 584.363281 C 536.582031 584.363281 534.105469 581.882812 534.105469 578.640625 C 534.105469 575.398438 536.582031 572.917969 539.828125 572.917969 L 577.976562 572.917969 C 581.21875 572.917969 583.699219 575.398438 583.699219 578.640625 C 583.699219 581.882812 581.21875 584.363281 577.976562 584.363281 Z M 577.976562 584.363281"
  /><path
    fill="#E91E63"
    d="M 120.171875 1118.511719 C 116.929688 1118.511719 114.449219 1116.03125 114.449219 1112.789062 L 114.449219 1074.636719 C 114.449219 1071.394531 116.929688 1068.914062 120.171875 1068.914062 C 123.417969 1068.914062 125.894531 1071.394531 125.894531 1074.636719 L 125.894531 1112.789062 C 125.894531 1116.03125 123.417969 1118.511719 120.171875 1118.511719 Z M 120.171875 1118.511719"
  /><path
    fill="#E91E63"
    d="M 139.25 1099.433594 L 101.097656 1099.433594 C 97.855469 1099.433594 95.375 1096.957031 95.375 1093.710938 C 95.375 1090.46875 97.855469 1087.988281 101.097656 1087.988281 L 139.25 1087.988281 C 142.492188 1087.988281 144.972656 1090.46875 144.972656 1093.710938 C 144.972656 1096.957031 142.492188 1099.433594 139.25 1099.433594 Z M 139.25 1099.433594"
  /><path
    fill="#E91E63"
    d="M 616.128906 1042.207031 C 612.882812 1042.207031 610.40625 1039.726562 610.40625 1036.480469 L 610.40625 998.328125 C 610.40625 995.085938 612.882812 992.605469 616.128906 992.605469 C 619.371094 992.605469 621.851562 995.085938 621.851562 998.328125 L 621.851562 1036.480469 C 621.851562 1039.726562 619.371094 1042.207031 616.128906 1042.207031 Z M 616.128906 1042.207031"
  /><path
    fill="#E91E63"
    d="M 635.203125 1023.128906 L 597.050781 1023.128906 C 593.808594 1023.128906 591.328125 1020.648438 591.328125 1017.40625 C 591.328125 1014.164062 593.808594 1011.683594 597.050781 1011.683594 L 635.203125 1011.683594 C 638.445312 1011.683594 640.925781 1014.164062 640.925781 1017.40625 C 640.925781 1020.648438 638.445312 1023.128906 635.203125 1023.128906 Z M 635.203125 1023.128906"
  /></svg>
