<svg xmlns="http://www.w3.org/2000/svg" width="660" viewBox="0 0 660 1500" height="1500" version="1.0"><defs><clipPath id="a"><path d="M 320 324.148438 L 341 324.148438 L 341 405 L 320 405 Z M 320 324.148438"/></clipPath><clipPath id="b"><path d="M 278 963 L 372 963 L 372 984.148438 L 278 984.148438 Z M 278 963"/></clipPath><clipPath id="c"><path d="M 484 808 L 660 808 L 660 984.148438 L 484 984.148438 Z M 484 808"/></clipPath><clipPath id="d"><path d="M 0 808 L 176 808 L 176 984.148438 L 0 984.148438 Z M 0 808"/></clipPath></defs><g clip-path="url(#a)"><path fill="#E91E63" d="M 330.320312 324.148438 C 324.628906 324.148438 320.007812 328.765625 320.007812 334.460938 L 320.007812 394.070312 C 320.007812 399.765625 324.628906 404.382812 330.320312 404.382812 C 336.015625 404.382812 340.632812 399.765625 340.632812 394.070312 L 340.632812 334.460938 C 340.632812 328.765625 336.015625 324.148438 330.320312 324.148438 Z M 330.320312 324.148438"/></g><path fill="#E91E63" d="M 91.589844 423.328125 C 87.589844 419.273438 81.066406 419.222656 77.007812 423.21875 C 72.949219 427.214844 72.898438 433.746094 76.894531 437.804688 L 118.425781 479.957031 C 120.445312 482.003906 123.109375 483.03125 125.773438 483.03125 C 128.386719 483.03125 131 482.042969 133.011719 480.066406 C 137.070312 476.066406 137.117188 469.539062 133.121094 465.480469 Z M 91.589844 423.328125"/><path fill="#E91E63" d="M 563.882812 423.328125 L 522.351562 465.476562 C 518.355469 469.535156 518.40625 476.066406 522.464844 480.0625 C 524.472656 482.042969 527.085938 483.027344 529.699219 483.027344 C 532.363281 483.027344 535.027344 482 537.046875 479.953125 L 578.578125 437.804688 C 582.574219 433.75 582.523438 427.21875 578.464844 423.222656 C 574.410156 419.222656 567.886719 419.273438 563.882812 423.328125 Z M 563.882812 423.328125"/><path fill="#E91E63" d="M 565.539062 572.226562 C 567.222656 576.125 571.019531 578.453125 575.011719 578.453125 C 576.375 578.453125 577.761719 578.183594 579.097656 577.605469 L 633.152344 554.261719 C 638.378906 552.003906 640.789062 545.9375 638.527344 540.707031 C 636.273438 535.476562 630.207031 533.058594 624.972656 535.328125 L 570.917969 558.671875 C 565.691406 560.929688 563.28125 567 565.539062 572.226562 Z M 565.539062 572.226562"/><path fill="#E91E63" d="M 21.269531 542.4375 C 19.285156 547.777344 22.011719 553.710938 27.351562 555.691406 L 82.523438 576.160156 C 83.707031 576.601562 84.917969 576.808594 86.109375 576.808594 C 90.300781 576.808594 94.238281 574.238281 95.777344 570.082031 C 97.761719 564.742188 95.039062 558.804688 89.695312 556.824219 L 34.523438 536.355469 C 29.183594 534.363281 23.25 537.09375 21.269531 542.4375 Z M 21.269531 542.4375"/><path fill="#E91E63" d="M 220.808594 421.691406 C 222.121094 421.691406 223.460938 421.4375 224.753906 420.898438 C 230.015625 418.714844 232.507812 412.679688 230.328125 407.421875 L 207.527344 352.484375 C 205.34375 347.230469 199.332031 344.734375 194.050781 346.914062 C 188.789062 349.097656 186.292969 355.132812 188.476562 360.390625 L 211.273438 415.328125 C 212.925781 419.296875 216.765625 421.691406 220.808594 421.691406 Z M 220.808594 421.691406"/><path fill="#E91E63" d="M 443.71875 423.390625 C 447.707031 423.390625 451.503906 421.066406 453.1875 417.175781 L 476.820312 362.601562 C 479.089844 357.375 476.6875 351.300781 471.460938 349.039062 C 466.234375 346.78125 460.160156 349.175781 457.898438 354.40625 L 434.261719 408.976562 C 431.996094 414.203125 434.398438 420.277344 439.625 422.539062 C 440.960938 423.117188 442.351562 423.390625 443.71875 423.390625 Z M 443.71875 423.390625"/><path fill="#E91E63" d="M 257.8125 927.429688 C 257.8125 933.125 262.429688 937.742188 268.125 937.742188 L 381.5625 937.742188 C 387.257812 937.742188 391.875 933.125 391.875 927.429688 C 391.875 921.734375 387.257812 917.117188 381.5625 917.117188 L 268.125 917.117188 C 262.429688 917.117188 257.8125 921.734375 257.8125 927.429688 Z M 257.8125 927.429688"/><g clip-path="url(#b)"><path fill="#E91E63" d="M 360.9375 984.148438 C 366.632812 984.148438 371.25 979.53125 371.25 973.835938 C 371.25 968.140625 366.632812 963.523438 360.9375 963.523438 L 288.75 963.523438 C 283.054688 963.523438 278.4375 968.140625 278.4375 973.835938 C 278.4375 979.53125 283.054688 984.148438 288.75 984.148438 Z M 360.9375 984.148438"/></g><path fill="#E91E63" d="M 341.605469 422.117188 L 340.191406 422.152344 C 334.542969 422.222656 330 426.816406 330 432.464844 L 330 780.367188 C 330 786.0625 334.617188 790.679688 340.3125 790.679688 C 346.007812 790.679688 350.625 786.0625 350.625 780.367188 L 350.625 442.929688 C 453.59375 447.410156 536.0625 531.238281 536.25 633.785156 C 536.382812 713.589844 485.429688 785.851562 409.46875 813.578125 C 405.398438 815.066406 402.691406 818.9375 402.691406 823.269531 L 402.691406 875.867188 L 350.625 875.867188 L 350.625 818.761719 C 350.625 813.066406 346.007812 808.449219 340.3125 808.449219 C 334.617188 808.449219 330 813.066406 330 818.761719 L 330 886.179688 C 330 891.875 334.617188 896.492188 340.3125 896.492188 L 403.265625 896.492188 C 414.324219 896.492188 423.316406 887.558594 423.316406 876.578125 L 423.316406 830.351562 C 503.640625 797.914062 557.015625 719.804688 556.875 633.75 C 556.664062 516.976562 460.292969 422.117188 341.980469 422.117188 C 341.859375 422.117188 341.726562 422.117188 341.605469 422.117188 Z M 341.605469 422.117188"/><path fill="#E91E63" d="M 142.355469 540.789062 C 126.367188 549.238281 115.460938 565.761719 115.460938 584.84375 C 115.460938 601.417969 123.699219 616.054688 136.328125 625.171875 C 122.667969 632.738281 113.4375 647.105469 113.4375 663.582031 C 113.4375 676.882812 119.460938 688.78125 128.941406 696.859375 C 126.191406 702.402344 124.601562 708.597656 124.601562 715.15625 C 124.601562 737.285156 142.09375 755.34375 164.214844 756.886719 C 164.40625 780.664062 184.089844 799.882812 208.359375 799.882812 C 209.003906 799.882812 209.628906 799.832031 210.257812 799.808594 C 214.484375 813.21875 224.382812 824.160156 237.1875 830.003906 L 237.1875 876.0625 C 237.1875 887.328125 246.632812 896.492188 258.242188 896.492188 L 299.0625 896.492188 C 304.757812 896.492188 309.375 891.875 309.375 886.179688 C 309.375 880.484375 304.757812 875.867188 299.0625 875.867188 L 258.242188 875.867188 C 258.007812 875.867188 257.851562 875.808594 257.8125 875.835938 L 257.8125 834.597656 C 257.992188 834.597656 258.175781 834.617188 258.355469 834.617188 C 286.160156 834.617188 308.707031 812.472656 308.707031 785.191406 L 309.375 461.738281 C 309.375 439.851562 291.3125 422.117188 269.019531 422.117188 C 254.75 422.117188 242.277344 429.449219 235.101562 440.429688 C 234.488281 440.46875 233.90625 440.519531 233.359375 440.59375 C 232.675781 440.683594 232.015625 440.84375 231.390625 441.058594 C 207.976562 441.089844 188.453125 457.425781 183.957031 479.109375 C 182.800781 479.019531 181.632812 478.925781 180.4375 478.925781 C 159.140625 478.925781 141.863281 495.898438 141.863281 516.808594 C 141.863281 524.175781 144.074219 531.011719 147.773438 536.828125 C 145.476562 537.519531 143.632812 538.964844 142.355469 540.789062 Z M 155.65625 557.359375 L 161.773438 555.085938 C 163.191406 554.945312 164.613281 554.78125 166.0625 554.78125 C 187.953125 554.78125 205.757812 571.183594 205.757812 591.34375 C 205.757812 597.039062 210.375 601.65625 216.070312 601.65625 C 221.765625 601.65625 226.382812 597.039062 226.382812 591.34375 C 226.382812 561.390625 201.960938 536.792969 171.011719 534.390625 L 165.464844 526.332031 C 163.519531 523.5 162.488281 520.207031 162.488281 516.808594 C 162.488281 507.292969 170.539062 499.550781 180.4375 499.550781 C 181.089844 499.550781 181.71875 499.625 182.347656 499.671875 L 185.449219 499.914062 C 185.832031 501.054688 186.390625 502.152344 187.191406 503.136719 C 196.777344 514.929688 211.320312 521.691406 227.097656 521.691406 C 232.792969 521.691406 237.410156 517.074219 237.410156 511.378906 C 237.410156 505.683594 232.792969 501.066406 227.097656 501.066406 C 217.558594 501.066406 208.847656 497.078125 203.191406 490.125 C 203.078125 489.984375 202.9375 489.882812 202.816406 489.75 L 204.15625 483.296875 C 206.753906 470.773438 218.234375 461.679688 231.4375 461.679688 C 231.753906 461.6875 232.066406 461.714844 232.382812 461.734375 L 233.445312 461.796875 L 243.566406 462.339844 C 246.921875 463.605469 250.855469 466.03125 254.394531 470.867188 C 256.414062 473.628906 259.550781 475.089844 262.726562 475.089844 C 264.835938 475.089844 266.972656 474.441406 268.804688 473.101562 C 273.402344 469.738281 274.402344 463.285156 271.039062 458.6875 C 266.945312 453.089844 262.277344 449.117188 257.570312 446.308594 C 260.855469 444.027344 264.8125 442.742188 269.019531 442.742188 C 279.898438 442.742188 288.75 451.261719 288.75 461.695312 L 288.082031 785.191406 C 288.082031 801.070312 274.746094 813.992188 258.355469 813.992188 C 246.558594 813.992188 235.882812 807.003906 231.199219 796.703125 C 251.660156 789.410156 265.445312 767.492188 263.207031 743.0625 C 262.691406 737.394531 257.78125 733.21875 251.996094 733.738281 C 246.328125 734.257812 242.148438 739.277344 242.671875 744.949219 C 244.242188 762.117188 233.453125 777.199219 218.605469 778.574219 C 218.03125 778.628906 217.484375 778.753906 216.945312 778.894531 L 209.433594 779.199219 L 208.53125 779.242188 L 208.359375 779.257812 C 195.488281 779.257812 184.941406 769.148438 184.839844 756.71875 L 184.71875 741.992188 C 184.910156 741.414062 185.054688 740.820312 185.144531 740.195312 C 185.875 735.042969 189.941406 730.875 194.84375 730.277344 C 197.957031 729.902344 200.960938 731.003906 203.074219 733.347656 C 206.898438 737.566406 213.410156 737.90625 217.640625 734.085938 C 221.863281 730.269531 222.195312 723.742188 218.378906 719.519531 C 211.789062 712.226562 202.046875 708.585938 192.328125 709.808594 C 178.5 711.480469 167.441406 722.277344 164.96875 736.199219 C 153.851562 735.078125 145.226562 725.996094 145.226562 715.15625 C 145.226562 712.03125 145.964844 708.960938 147.421875 706.023438 L 154.570312 691.597656 L 142.316406 681.160156 C 137.070312 676.691406 134.0625 670.28125 134.0625 663.582031 C 134.0625 655.207031 138.761719 647.402344 146.324219 643.210938 L 152.878906 639.578125 C 159.753906 641.386719 165.78125 645.867188 169.429688 652.164062 C 171.828125 656.316406 173.097656 661.058594 173.097656 665.871094 C 173.097656 671.566406 177.714844 676.183594 183.410156 676.183594 C 189.105469 676.183594 193.722656 671.566406 193.722656 665.871094 C 193.722656 657.445312 191.5 649.136719 187.28125 641.835938 C 184.003906 636.183594 179.628906 631.378906 174.535156 627.582031 L 174.75 627.464844 L 148.398438 608.445312 C 140.574219 602.796875 136.085938 594.195312 136.085938 584.84375 C 136.085938 572.75 143.953125 561.703125 155.65625 557.359375 Z M 155.65625 557.359375"/><path fill="#E91E63" d="M 469.21875 607.742188 C 469.21875 608.421875 469.152344 609.089844 469.019531 609.753906 C 468.886719 610.417969 468.691406 611.0625 468.433594 611.6875 C 468.175781 612.316406 467.855469 612.910156 467.480469 613.472656 C 467.105469 614.035156 466.675781 614.554688 466.199219 615.035156 C 465.71875 615.515625 465.199219 615.941406 464.636719 616.316406 C 464.074219 616.695312 463.476562 617.011719 462.851562 617.269531 C 462.226562 617.53125 461.582031 617.726562 460.917969 617.855469 C 460.253906 617.988281 459.582031 618.054688 458.90625 618.054688 C 458.230469 618.054688 457.558594 617.988281 456.894531 617.855469 C 456.230469 617.726562 455.585938 617.53125 454.960938 617.269531 C 454.335938 617.011719 453.738281 616.695312 453.175781 616.316406 C 452.613281 615.941406 452.09375 615.515625 451.613281 615.035156 C 451.136719 614.554688 450.707031 614.035156 450.332031 613.472656 C 449.957031 612.910156 449.636719 612.316406 449.378906 611.6875 C 449.121094 611.0625 448.925781 610.417969 448.792969 609.753906 C 448.660156 609.089844 448.59375 608.421875 448.59375 607.742188 C 448.59375 607.066406 448.660156 606.394531 448.792969 605.730469 C 448.925781 605.066406 449.121094 604.421875 449.378906 603.796875 C 449.636719 603.171875 449.957031 602.578125 450.332031 602.011719 C 450.707031 601.449219 451.136719 600.929688 451.613281 600.449219 C 452.09375 599.972656 452.613281 599.542969 453.175781 599.167969 C 453.738281 598.792969 454.335938 598.472656 454.960938 598.214844 C 455.585938 597.957031 456.230469 597.761719 456.894531 597.628906 C 457.558594 597.496094 458.230469 597.429688 458.90625 597.429688 C 459.582031 597.429688 460.253906 597.496094 460.917969 597.628906 C 461.582031 597.761719 462.226562 597.957031 462.851562 598.214844 C 463.476562 598.472656 464.074219 598.792969 464.636719 599.167969 C 465.199219 599.542969 465.71875 599.972656 466.199219 600.449219 C 466.675781 600.929688 467.105469 601.449219 467.480469 602.011719 C 467.855469 602.578125 468.175781 603.171875 468.433594 603.796875 C 468.691406 604.421875 468.886719 605.066406 469.019531 605.730469 C 469.152344 606.394531 469.21875 607.066406 469.21875 607.742188 Z M 469.21875 607.742188"/><g clip-path="url(#c)"><path fill="#E91E63" d="M 643.550781 866.996094 C 647.332031 857.097656 645.105469 845.289062 636.957031 837.144531 L 631.691406 831.878906 C 626.332031 826.53125 619.011719 823.46875 611.59375 823.46875 C 608.191406 823.46875 604.890625 824.082031 601.824219 825.261719 C 597.503906 815.609375 587.582031 808.835938 576.058594 808.835938 L 568.621094 808.835938 C 557.097656 808.835938 547.175781 815.609375 542.851562 825.265625 C 539.785156 824.082031 536.492188 823.46875 533.09375 823.46875 C 525.664062 823.46875 518.339844 826.53125 512.996094 831.878906 L 507.730469 837.144531 C 502.753906 842.101562 499.773438 848.667969 499.367188 855.605469 C 499.132812 859.539062 499.753906 863.421875 501.128906 866.996094 C 491.464844 871.316406 484.6875 881.246094 484.6875 892.769531 L 484.6875 900.214844 C 484.6875 911.746094 491.464844 921.671875 501.132812 925.992188 C 499.753906 929.570312 499.132812 933.449219 499.367188 937.378906 C 499.773438 944.320312 502.753906 950.886719 507.753906 955.863281 L 512.996094 961.109375 C 518.339844 966.453125 525.664062 969.515625 533.09375 969.515625 C 536.492188 969.515625 539.789062 968.902344 542.855469 967.722656 C 547.175781 977.382812 557.101562 984.148438 568.621094 984.148438 L 576.058594 984.148438 C 587.582031 984.148438 597.503906 977.375 601.832031 967.722656 C 604.890625 968.902344 608.191406 969.515625 611.589844 969.515625 C 619.011719 969.515625 626.332031 966.453125 631.679688 961.121094 L 636.957031 955.839844 C 645.105469 947.691406 647.335938 935.878906 643.554688 925.992188 C 653.222656 921.671875 660 911.746094 660 900.214844 L 660 892.769531 C 660 881.242188 653.21875 871.3125 643.550781 866.996094 Z M 639.375 900.214844 C 639.375 904.316406 636.402344 907.667969 632.75 907.667969 L 623.265625 907.667969 C 621.925781 913.785156 619.515625 919.488281 616.238281 924.59375 L 622.960938 931.308594 C 625.546875 933.902344 625.28125 938.351562 622.375 941.257812 L 617.109375 946.523438 C 615.539062 948.089844 613.523438 948.890625 611.589844 948.890625 C 609.9375 948.890625 608.351562 948.308594 607.160156 947.113281 L 600.445312 940.386719 C 595.339844 943.667969 589.636719 946.078125 583.511719 947.410156 L 583.511719 956.902344 C 583.511719 960.558594 580.175781 963.523438 576.058594 963.523438 L 568.621094 963.523438 C 564.507812 963.523438 561.171875 960.558594 561.171875 956.902344 L 561.171875 947.410156 C 555.050781 946.078125 549.34375 943.667969 544.234375 940.386719 L 537.527344 947.113281 C 536.335938 948.308594 534.746094 948.890625 533.09375 948.890625 C 531.160156 948.890625 529.144531 948.089844 527.578125 946.523438 L 522.3125 941.257812 C 519.394531 938.351562 519.132812 933.902344 521.722656 931.308594 L 528.445312 924.59375 C 525.167969 919.488281 522.753906 913.785156 521.421875 907.667969 L 511.933594 907.667969 C 508.277344 907.667969 505.3125 904.316406 505.3125 900.214844 L 505.3125 892.769531 C 505.3125 888.65625 508.277344 885.320312 511.933594 885.320312 L 521.421875 885.320312 C 522.753906 879.203125 525.167969 873.496094 528.445312 868.390625 L 521.722656 861.679688 C 519.132812 859.085938 519.394531 854.632812 522.3125 851.726562 L 527.578125 846.460938 C 529.144531 844.894531 531.160156 844.09375 533.09375 844.09375 C 534.746094 844.09375 536.335938 844.679688 537.527344 845.871094 L 544.234375 852.597656 C 549.34375 849.324219 555.050781 846.910156 561.171875 845.574219 L 561.171875 836.082031 C 561.171875 832.425781 564.507812 829.460938 568.621094 829.460938 L 576.058594 829.460938 C 580.175781 829.460938 583.511719 832.425781 583.511719 836.082031 L 583.511719 845.574219 C 589.636719 846.910156 595.339844 849.324219 600.445312 852.597656 L 607.160156 845.871094 C 608.351562 844.679688 609.9375 844.09375 611.589844 844.09375 C 613.523438 844.09375 615.539062 844.894531 617.109375 846.460938 L 622.375 851.726562 C 625.28125 854.632812 625.546875 859.085938 622.960938 861.679688 L 616.238281 868.390625 C 619.515625 873.496094 621.925781 879.203125 623.265625 885.320312 L 632.75 885.320312 C 636.402344 885.320312 639.375 888.65625 639.375 892.769531 Z M 639.375 900.214844"/></g><path fill="#E91E63" d="M 572.34375 862.976562 C 553.839844 862.976562 538.828125 877.988281 538.828125 896.492188 C 538.828125 914.996094 553.839844 930.007812 572.34375 930.007812 C 590.847656 930.007812 605.859375 914.996094 605.859375 896.492188 C 605.859375 877.988281 590.847656 862.976562 572.34375 862.976562 Z M 572.34375 909.382812 C 565.234375 909.382812 559.453125 903.601562 559.453125 896.492188 C 559.453125 889.382812 565.234375 883.601562 572.34375 883.601562 C 579.453125 883.601562 585.234375 889.382812 585.234375 896.492188 C 585.234375 903.601562 579.453125 909.382812 572.34375 909.382812 Z M 572.34375 909.382812"/><g clip-path="url(#d)"><path fill="#E91E63" d="M 16.445312 925.992188 C 15.066406 929.570312 14.445312 933.449219 14.679688 937.378906 C 15.085938 944.320312 18.066406 950.886719 23.066406 955.863281 L 28.308594 961.109375 C 33.652344 966.453125 40.976562 969.515625 48.40625 969.515625 C 51.804688 969.515625 55.101562 968.902344 58.167969 967.722656 C 62.488281 977.382812 72.414062 984.148438 83.933594 984.148438 L 91.371094 984.148438 C 102.894531 984.148438 112.816406 977.375 117.144531 967.722656 C 120.207031 968.902344 123.503906 969.515625 126.902344 969.515625 C 134.324219 969.515625 141.644531 966.453125 146.992188 961.121094 L 152.269531 955.839844 C 160.417969 947.691406 162.648438 935.878906 158.867188 925.992188 C 168.535156 921.671875 175.3125 911.746094 175.3125 900.214844 L 175.3125 892.769531 C 175.3125 881.242188 168.53125 871.3125 158.863281 866.996094 C 162.644531 857.097656 160.417969 845.289062 152.269531 837.144531 L 147.003906 831.878906 C 141.644531 826.53125 134.328125 823.46875 126.90625 823.46875 C 123.503906 823.46875 120.207031 824.082031 117.136719 825.261719 C 112.816406 815.609375 102.894531 808.835938 91.371094 808.835938 L 83.933594 808.835938 C 72.410156 808.835938 62.488281 815.609375 58.164062 825.265625 C 55.097656 824.082031 51.804688 823.46875 48.40625 823.46875 C 40.976562 823.46875 33.652344 826.53125 28.308594 831.878906 L 23.042969 837.144531 C 18.066406 842.101562 15.085938 848.667969 14.679688 855.605469 C 14.445312 859.539062 15.066406 863.421875 16.441406 866.996094 C 6.777344 871.316406 0 881.246094 0 892.769531 L 0 900.214844 C 0 911.746094 6.777344 921.671875 16.445312 925.992188 Z M 20.625 892.769531 C 20.625 888.65625 23.589844 885.320312 27.246094 885.320312 L 36.734375 885.320312 C 38.066406 879.203125 40.480469 873.496094 43.757812 868.390625 L 37.035156 861.679688 C 34.445312 859.085938 34.707031 854.632812 37.625 851.726562 L 42.890625 846.460938 C 44.457031 844.894531 46.472656 844.09375 48.40625 844.09375 C 50.058594 844.09375 51.648438 844.679688 52.839844 845.871094 L 59.546875 852.597656 C 64.65625 849.324219 70.363281 846.910156 76.484375 845.574219 L 76.484375 836.082031 C 76.484375 832.425781 79.820312 829.460938 83.933594 829.460938 L 91.371094 829.460938 C 95.488281 829.460938 98.824219 832.425781 98.824219 836.082031 L 98.824219 845.574219 C 104.949219 846.910156 110.652344 849.324219 115.757812 852.597656 L 122.472656 845.871094 C 123.664062 844.679688 125.25 844.09375 126.902344 844.09375 C 128.835938 844.09375 130.851562 844.894531 132.421875 846.460938 L 137.6875 851.726562 C 140.59375 854.632812 140.859375 859.085938 138.273438 861.679688 L 131.550781 868.390625 C 134.828125 873.496094 137.238281 879.203125 138.578125 885.320312 L 148.0625 885.320312 C 151.714844 885.320312 154.6875 888.65625 154.6875 892.769531 L 154.6875 900.214844 C 154.6875 904.316406 151.714844 907.667969 148.0625 907.667969 L 138.578125 907.667969 C 137.238281 913.785156 134.828125 919.488281 131.550781 924.59375 L 138.273438 931.308594 C 140.859375 933.902344 140.59375 938.351562 137.6875 941.257812 L 132.421875 946.523438 C 130.851562 948.089844 128.835938 948.890625 126.902344 948.890625 C 125.25 948.890625 123.664062 948.308594 122.472656 947.113281 L 115.757812 940.386719 C 110.652344 943.667969 104.949219 946.078125 98.824219 947.410156 L 98.824219 956.902344 C 98.824219 960.558594 95.488281 963.523438 91.371094 963.523438 L 83.933594 963.523438 C 79.820312 963.523438 76.484375 960.558594 76.484375 956.902344 L 76.484375 947.410156 C 70.363281 946.078125 64.65625 943.667969 59.546875 940.386719 L 52.839844 947.113281 C 51.648438 948.308594 50.058594 948.890625 48.40625 948.890625 C 46.472656 948.890625 44.457031 948.089844 42.890625 946.523438 L 37.625 941.257812 C 34.707031 938.351562 34.445312 933.902344 37.035156 931.308594 L 43.757812 924.59375 C 40.480469 919.488281 38.066406 913.785156 36.734375 907.667969 L 27.246094 907.667969 C 23.589844 907.667969 20.625 904.316406 20.625 900.214844 Z M 20.625 892.769531"/></g><path fill="#E91E63" d="M 87.65625 930.007812 C 106.160156 930.007812 121.171875 914.996094 121.171875 896.492188 C 121.171875 877.988281 106.160156 862.976562 87.65625 862.976562 C 69.152344 862.976562 54.140625 877.988281 54.140625 896.492188 C 54.140625 914.996094 69.152344 930.007812 87.65625 930.007812 Z M 87.65625 883.601562 C 94.765625 883.601562 100.546875 889.382812 100.546875 896.492188 C 100.546875 903.601562 94.765625 909.382812 87.65625 909.382812 C 80.546875 909.382812 74.765625 903.601562 74.765625 896.492188 C 74.765625 889.382812 80.546875 883.601562 87.65625 883.601562 Z M 87.65625 883.601562"/><path fill="#E91E63" d="M 237.53125 655.089844 C 231.835938 655.089844 227.21875 659.707031 227.21875 665.402344 C 227.21875 671.097656 231.835938 675.714844 237.53125 675.714844 C 253.503906 675.714844 266.5 662.679688 266.5 646.65625 C 266.5 630.632812 253.503906 617.59375 237.53125 617.59375 C 231.835938 617.59375 227.21875 622.210938 227.21875 627.90625 C 227.21875 633.597656 231.835938 638.21875 237.53125 638.21875 C 242.132812 638.21875 245.875 642.003906 245.875 646.65625 C 245.875 651.304688 242.132812 655.089844 237.53125 655.089844 Z M 237.53125 655.089844"/><path fill="#E91E63" d="M 399.039062 494.5 C 393.464844 493.417969 388.0625 497.011719 386.941406 502.582031 C 385.816406 508.148438 389.421875 513.582031 394.992188 514.726562 C 396.890625 515.117188 441.589844 524.78125 448.730469 568.167969 C 449.558594 573.21875 453.9375 576.808594 458.894531 576.808594 C 459.449219 576.808594 460.015625 576.761719 460.582031 576.667969 C 466.203125 575.742188 470.007812 570.4375 469.082031 564.820312 C 459.589844 507.164062 401.507812 494.992188 399.039062 494.5 Z M 399.039062 494.5"/></svg>