<svg xmlns="http://www.w3.org/2000/svg" width="810" viewBox="0 0 810 810" height="810" version="1.0"><defs><clipPath id="a"><path d="M 208.398438 225.710938 L 279.648438 225.710938 L 279.648438 549.710938 L 208.398438 549.710938 Z M 208.398438 225.710938"/></clipPath><clipPath id="b"><path d="M 530.34375 225.710938 L 601.59375 225.710938 L 601.59375 549.710938 L 530.34375 549.710938 Z M 530.34375 225.710938"/></clipPath><clipPath id="c"><path d="M 290 293 L 520 293 L 520 498.925781 L 290 498.925781 Z M 290 293"/></clipPath></defs><g clip-path="url(#a)"><path fill="#E91E63" d="M 239.792969 263.871094 C 239.792969 252.191406 249.261719 242.722656 260.9375 242.722656 L 271.203125 242.722656 C 275.875 242.722656 279.660156 238.933594 279.660156 234.265625 C 279.660156 229.59375 275.875 225.804688 271.203125 225.804688 L 268.183594 225.804688 C 247.167969 225.804688 230.128906 242.847656 230.128906 263.871094 L 230.128906 340.816406 C 230.128906 356.171875 225.242188 370.898438 214.386719 381.753906 L 208.40625 387.738281 L 214.386719 393.722656 C 225.242188 404.582031 230.128906 419.308594 230.128906 434.664062 L 230.128906 511.605469 C 230.128906 532.628906 247.167969 549.671875 268.183594 549.671875 L 271.203125 549.671875 C 275.875 549.671875 279.660156 545.886719 279.660156 541.214844 C 279.660156 536.542969 275.875 532.753906 271.203125 532.753906 L 260.9375 532.753906 C 249.261719 532.753906 239.792969 523.285156 239.792969 511.605469 L 239.792969 434.664062 C 239.792969 417.375 233.964844 400.996094 223.253906 387.738281 C 233.964844 374.484375 239.792969 358.101562 239.792969 340.816406 L 239.792969 263.871094"/></g><g clip-path="url(#b)"><path fill="#E91E63" d="M 570.199219 511.554688 C 570.199219 523.234375 560.734375 532.699219 549.058594 532.699219 L 538.789062 532.699219 C 534.121094 532.699219 530.332031 536.488281 530.332031 541.160156 C 530.332031 545.832031 534.121094 549.621094 538.789062 549.621094 L 541.808594 549.621094 C 562.824219 549.621094 579.863281 532.574219 579.863281 511.554688 L 579.863281 434.605469 C 579.863281 419.25 584.753906 404.523438 595.605469 393.667969 L 601.585938 387.683594 L 595.605469 381.699219 C 584.753906 370.84375 579.863281 356.117188 579.863281 340.761719 L 579.863281 263.816406 C 579.863281 242.792969 562.824219 225.75 541.808594 225.75 L 538.789062 225.75 C 534.121094 225.75 530.332031 229.535156 530.332031 234.207031 C 530.332031 238.878906 534.121094 242.667969 538.789062 242.667969 L 549.058594 242.667969 C 560.734375 242.667969 570.199219 252.136719 570.199219 263.816406 L 570.199219 340.761719 C 570.199219 358.046875 576.027344 374.425781 586.738281 387.683594 C 576.027344 400.941406 570.199219 417.324219 570.199219 434.605469 L 570.199219 511.554688"/></g><g clip-path="url(#c)"><path fill="#E91E63" d="M 518.546875 343.808594 C 505.660156 277.589844 424.898438 276.484375 404.984375 338.386719 C 385.070312 276.484375 304.308594 277.589844 291.425781 343.808594 C 279.734375 403.886719 404.984375 498.667969 404.984375 498.667969 C 404.984375 498.667969 530.234375 403.886719 518.546875 343.808594 Z M 518.546875 343.808594"/></g></svg>