<svg xmlns="http://www.w3.org/2000/svg" width="375" viewBox="0 0 375 375" height="375" version="1.0"><path transform="matrix(8.98496 0 0 9 91.067 212.522)" fill="none" d="M -0.0000503363 0.000204562 L 11.686583 0.000204562" stroke="#7DB0DE"/><g fill="#7DB0DE"><g><g><path d="M 15.90625 0.703125 C 13.050781 0.703125 10.28125 0.351562 7.59375 -0.34375 C 4.914062 -1.050781 2.738281 -1.992188 1.0625 -3.171875 L 4.328125 -10.515625 C 5.910156 -9.484375 7.738281 -8.644531 9.8125 -8 C 11.894531 -7.363281 13.941406 -7.046875 15.953125 -7.046875 C 19.785156 -7.046875 21.703125 -8.003906 21.703125 -9.921875 C 21.703125 -10.921875 21.15625 -11.664062 20.0625 -12.15625 C 18.96875 -12.644531 17.210938 -13.15625 14.796875 -13.6875 C 12.148438 -14.257812 9.9375 -14.875 8.15625 -15.53125 C 6.375 -16.1875 4.84375 -17.234375 3.5625 -18.671875 C 2.289062 -20.117188 1.65625 -22.066406 1.65625 -24.515625 C 1.65625 -26.660156 2.242188 -28.597656 3.421875 -30.328125 C 4.597656 -32.054688 6.351562 -33.425781 8.6875 -34.4375 C 11.019531 -35.445312 13.878906 -35.953125 17.265625 -35.953125 C 19.578125 -35.953125 21.859375 -35.691406 24.109375 -35.171875 C 26.359375 -34.648438 28.34375 -33.882812 30.0625 -32.875 L 26.984375 -25.46875 C 23.628906 -27.28125 20.375 -28.1875 17.21875 -28.1875 C 15.238281 -28.1875 13.796875 -27.894531 12.890625 -27.3125 C 11.984375 -26.726562 11.53125 -25.960938 11.53125 -25.015625 C 11.53125 -24.078125 12.066406 -23.375 13.140625 -22.90625 C 14.210938 -22.4375 15.941406 -21.953125 18.328125 -21.453125 C 21.015625 -20.878906 23.238281 -20.265625 25 -19.609375 C 26.757812 -18.953125 28.285156 -17.910156 29.578125 -16.484375 C 30.867188 -15.054688 31.515625 -13.117188 31.515625 -10.671875 C 31.515625 -8.554688 30.925781 -6.640625 29.75 -4.921875 C 28.570312 -3.210938 26.804688 -1.847656 24.453125 -0.828125 C 22.109375 0.191406 19.257812 0.703125 15.90625 0.703125 Z M 15.90625 0.703125" transform="translate(91.067 195.26)"/></g></g></g><g fill="#7DB0DE"><g><g><path d="M 19.640625 -35.234375 C 22.828125 -35.234375 25.59375 -34.703125 27.9375 -33.640625 C 30.289062 -32.585938 32.101562 -31.078125 33.375 -29.109375 C 34.65625 -27.148438 35.296875 -24.847656 35.296875 -22.203125 C 35.296875 -19.546875 34.65625 -17.242188 33.375 -15.296875 C 32.101562 -13.359375 30.289062 -11.859375 27.9375 -10.796875 C 25.59375 -9.742188 22.828125 -9.21875 19.640625 -9.21875 L 13.484375 -9.21875 L 13.484375 0 L 3.53125 0 L 3.53125 -35.234375 Z M 19.03125 -17.0625 C 21.070312 -17.0625 22.613281 -17.503906 23.65625 -18.390625 C 24.695312 -19.285156 25.21875 -20.554688 25.21875 -22.203125 C 25.21875 -23.847656 24.695312 -25.125 23.65625 -26.03125 C 22.613281 -26.9375 21.070312 -27.390625 19.03125 -27.390625 L 13.484375 -27.390625 L 13.484375 -17.0625 Z M 19.03125 -17.0625" transform="translate(128.02 195.26)"/></g></g></g><g fill="#323333"><g><g><path d="M 0.8125 -9.890625 L 5.6875 -9.890625 C 6.789062 -9.890625 7.765625 -9.691406 8.609375 -9.296875 C 9.453125 -8.898438 10.101562 -8.328125 10.5625 -7.578125 C 11.03125 -6.835938 11.265625 -5.960938 11.265625 -4.953125 C 11.265625 -3.941406 11.03125 -3.0625 10.5625 -2.3125 C 10.101562 -1.570312 9.453125 -1 8.609375 -0.59375 C 7.765625 -0.195312 6.789062 0 5.6875 0 L 0.8125 0 Z M 5.546875 -2.609375 C 6.265625 -2.609375 6.835938 -2.8125 7.265625 -3.21875 C 7.691406 -3.625 7.90625 -4.203125 7.90625 -4.953125 C 7.90625 -5.691406 7.691406 -6.265625 7.265625 -6.671875 C 6.835938 -7.085938 6.265625 -7.296875 5.546875 -7.296875 L 4.140625 -7.296875 L 4.140625 -2.609375 Z M 5.546875 -2.609375" transform="translate(91.067 238.208)"/></g></g></g><g fill="#323333"><g><g><path d="M 9.03125 -2.515625 L 9.03125 0 L 0.8125 0 L 0.8125 -9.890625 L 8.859375 -9.890625 L 8.859375 -7.375 L 4.09375 -7.375 L 4.09375 -6.21875 L 8.265625 -6.21875 L 8.265625 -3.8125 L 4.09375 -3.8125 L 4.09375 -2.515625 Z M 9.03125 -2.515625" transform="translate(106.258 238.208)"/></g></g></g><g fill="#323333"><g><g><path d="M 11.390625 -9.890625 L 7.203125 0 L 3.921875 0 L -0.265625 -9.890625 L 3.328125 -9.890625 L 5.6875 -4.109375 L 8.109375 -9.890625 Z M 11.390625 -9.890625" transform="translate(119.286 238.208)"/></g></g></g></svg>